<mxfile host="app.diagrams.net" modified="2021-06-12T05:01:09.785Z" agent="5.0 (Windows NT 6.1) AppleWebKit/537.36 (KHTML, like Gecko) coc_coc_browser/95.0.150 Chrome/89.0.4389.150 Safari/537.36" etag="pScP6NuDUvricRBXXWvW" version="14.7.7" type="github">
  <diagram id="5Y4zUhihoq0ojBCz9Xj4" name="Page-1">
    <mxGraphModel dx="1378" dy="756" grid="1" gridSize="10" guides="1" tooltips="1" connect="1" arrows="1" fold="1" page="1" pageScale="1" pageWidth="827" pageHeight="1169" math="0" shadow="0">
      <root>
        <mxCell id="0" />
        <mxCell id="1" parent="0" />
        <mxCell id="P7zBk37iXGUM-F-DUnUP-1" value="Bác sĩ" style="shape=table;startSize=30;container=1;collapsible=0;childLayout=tableLayout;fixedRows=1;rowLines=0;fontStyle=1;align=center;" vertex="1" parent="1">
          <mxGeometry x="310" y="40" width="180" height="210" as="geometry" />
        </mxCell>
        <mxCell id="P7zBk37iXGUM-F-DUnUP-2" value="" style="shape=partialRectangle;html=1;whiteSpace=wrap;collapsible=0;dropTarget=0;pointerEvents=0;fillColor=none;top=0;left=0;bottom=1;right=0;points=[[0,0.5],[1,0.5]];portConstraint=eastwest;" vertex="1" parent="P7zBk37iXGUM-F-DUnUP-1">
          <mxGeometry y="30" width="180" height="30" as="geometry" />
        </mxCell>
        <mxCell id="P7zBk37iXGUM-F-DUnUP-3" value="&lt;b&gt;PK&lt;/b&gt;" style="shape=partialRectangle;html=1;whiteSpace=wrap;connectable=0;fillColor=none;top=0;left=0;bottom=0;right=0;overflow=hidden;" vertex="1" parent="P7zBk37iXGUM-F-DUnUP-2">
          <mxGeometry width="40" height="30" as="geometry" />
        </mxCell>
        <mxCell id="P7zBk37iXGUM-F-DUnUP-4" value="&lt;b&gt;Mã_BS&lt;/b&gt;" style="shape=partialRectangle;html=1;whiteSpace=wrap;connectable=0;fillColor=none;top=0;left=0;bottom=0;right=0;align=left;spacingLeft=6;overflow=hidden;" vertex="1" parent="P7zBk37iXGUM-F-DUnUP-2">
          <mxGeometry x="40" width="140" height="30" as="geometry" />
        </mxCell>
        <mxCell id="P7zBk37iXGUM-F-DUnUP-5" value="" style="shape=partialRectangle;html=1;whiteSpace=wrap;collapsible=0;dropTarget=0;pointerEvents=0;fillColor=none;top=0;left=0;bottom=0;right=0;points=[[0,0.5],[1,0.5]];portConstraint=eastwest;" vertex="1" parent="P7zBk37iXGUM-F-DUnUP-1">
          <mxGeometry y="60" width="180" height="30" as="geometry" />
        </mxCell>
        <mxCell id="P7zBk37iXGUM-F-DUnUP-6" value="" style="shape=partialRectangle;html=1;whiteSpace=wrap;connectable=0;fillColor=none;top=0;left=0;bottom=0;right=0;overflow=hidden;" vertex="1" parent="P7zBk37iXGUM-F-DUnUP-5">
          <mxGeometry width="40" height="30" as="geometry" />
        </mxCell>
        <mxCell id="P7zBk37iXGUM-F-DUnUP-7" value="Họ tên" style="shape=partialRectangle;html=1;whiteSpace=wrap;connectable=0;fillColor=none;top=0;left=0;bottom=0;right=0;align=left;spacingLeft=6;overflow=hidden;" vertex="1" parent="P7zBk37iXGUM-F-DUnUP-5">
          <mxGeometry x="40" width="140" height="30" as="geometry" />
        </mxCell>
        <mxCell id="P7zBk37iXGUM-F-DUnUP-8" value="" style="shape=partialRectangle;html=1;whiteSpace=wrap;collapsible=0;dropTarget=0;pointerEvents=0;fillColor=none;top=0;left=0;bottom=0;right=0;points=[[0,0.5],[1,0.5]];portConstraint=eastwest;" vertex="1" parent="P7zBk37iXGUM-F-DUnUP-1">
          <mxGeometry y="90" width="180" height="30" as="geometry" />
        </mxCell>
        <mxCell id="P7zBk37iXGUM-F-DUnUP-9" value="" style="shape=partialRectangle;html=1;whiteSpace=wrap;connectable=0;fillColor=none;top=0;left=0;bottom=0;right=0;overflow=hidden;" vertex="1" parent="P7zBk37iXGUM-F-DUnUP-8">
          <mxGeometry width="40" height="30" as="geometry" />
        </mxCell>
        <mxCell id="P7zBk37iXGUM-F-DUnUP-10" value="Địa chỉ" style="shape=partialRectangle;html=1;whiteSpace=wrap;connectable=0;fillColor=none;top=0;left=0;bottom=0;right=0;align=left;spacingLeft=6;overflow=hidden;" vertex="1" parent="P7zBk37iXGUM-F-DUnUP-8">
          <mxGeometry x="40" width="140" height="30" as="geometry" />
        </mxCell>
        <mxCell id="P7zBk37iXGUM-F-DUnUP-11" value="" style="shape=partialRectangle;html=1;whiteSpace=wrap;collapsible=0;dropTarget=0;pointerEvents=0;fillColor=none;top=0;left=0;bottom=0;right=0;points=[[0,0.5],[1,0.5]];portConstraint=eastwest;" vertex="1" parent="P7zBk37iXGUM-F-DUnUP-1">
          <mxGeometry y="120" width="180" height="30" as="geometry" />
        </mxCell>
        <mxCell id="P7zBk37iXGUM-F-DUnUP-12" value="" style="shape=partialRectangle;html=1;whiteSpace=wrap;connectable=0;fillColor=none;top=0;left=0;bottom=0;right=0;overflow=hidden;" vertex="1" parent="P7zBk37iXGUM-F-DUnUP-11">
          <mxGeometry width="40" height="30" as="geometry" />
        </mxCell>
        <mxCell id="P7zBk37iXGUM-F-DUnUP-13" value="SĐT" style="shape=partialRectangle;html=1;whiteSpace=wrap;connectable=0;fillColor=none;top=0;left=0;bottom=0;right=0;align=left;spacingLeft=6;overflow=hidden;" vertex="1" parent="P7zBk37iXGUM-F-DUnUP-11">
          <mxGeometry x="40" width="140" height="30" as="geometry" />
        </mxCell>
        <mxCell id="P7zBk37iXGUM-F-DUnUP-14" value="" style="shape=partialRectangle;html=1;whiteSpace=wrap;collapsible=0;dropTarget=0;pointerEvents=0;fillColor=none;top=0;left=0;bottom=0;right=0;points=[[0,0.5],[1,0.5]];portConstraint=eastwest;" vertex="1" parent="P7zBk37iXGUM-F-DUnUP-1">
          <mxGeometry y="150" width="180" height="30" as="geometry" />
        </mxCell>
        <mxCell id="P7zBk37iXGUM-F-DUnUP-15" value="FK" style="shape=partialRectangle;html=1;whiteSpace=wrap;connectable=0;fillColor=none;top=0;left=0;bottom=0;right=0;overflow=hidden;" vertex="1" parent="P7zBk37iXGUM-F-DUnUP-14">
          <mxGeometry width="40" height="30" as="geometry" />
        </mxCell>
        <mxCell id="P7zBk37iXGUM-F-DUnUP-16" value="Mã khoa" style="shape=partialRectangle;html=1;whiteSpace=wrap;connectable=0;fillColor=none;top=0;left=0;bottom=0;right=0;align=left;spacingLeft=6;overflow=hidden;" vertex="1" parent="P7zBk37iXGUM-F-DUnUP-14">
          <mxGeometry x="40" width="140" height="30" as="geometry" />
        </mxCell>
        <mxCell id="P7zBk37iXGUM-F-DUnUP-17" value="Chuyên Khoa" style="shape=table;startSize=30;container=1;collapsible=0;childLayout=tableLayout;fixedRows=1;rowLines=0;fontStyle=1;align=center;" vertex="1" parent="1">
          <mxGeometry x="620" y="40" width="180" height="120" as="geometry" />
        </mxCell>
        <mxCell id="P7zBk37iXGUM-F-DUnUP-18" value="" style="shape=partialRectangle;html=1;whiteSpace=wrap;collapsible=0;dropTarget=0;pointerEvents=0;fillColor=none;top=0;left=0;bottom=1;right=0;points=[[0,0.5],[1,0.5]];portConstraint=eastwest;" vertex="1" parent="P7zBk37iXGUM-F-DUnUP-17">
          <mxGeometry y="30" width="180" height="30" as="geometry" />
        </mxCell>
        <mxCell id="P7zBk37iXGUM-F-DUnUP-19" value="&lt;b&gt;PK&lt;/b&gt;" style="shape=partialRectangle;html=1;whiteSpace=wrap;connectable=0;fillColor=none;top=0;left=0;bottom=0;right=0;overflow=hidden;" vertex="1" parent="P7zBk37iXGUM-F-DUnUP-18">
          <mxGeometry width="40" height="30" as="geometry" />
        </mxCell>
        <mxCell id="P7zBk37iXGUM-F-DUnUP-20" value="&lt;b&gt;Mã khoa&lt;/b&gt;" style="shape=partialRectangle;html=1;whiteSpace=wrap;connectable=0;fillColor=none;top=0;left=0;bottom=0;right=0;align=left;spacingLeft=6;overflow=hidden;" vertex="1" parent="P7zBk37iXGUM-F-DUnUP-18">
          <mxGeometry x="40" width="140" height="30" as="geometry" />
        </mxCell>
        <mxCell id="P7zBk37iXGUM-F-DUnUP-21" value="" style="shape=partialRectangle;html=1;whiteSpace=wrap;collapsible=0;dropTarget=0;pointerEvents=0;fillColor=none;top=0;left=0;bottom=0;right=0;points=[[0,0.5],[1,0.5]];portConstraint=eastwest;" vertex="1" parent="P7zBk37iXGUM-F-DUnUP-17">
          <mxGeometry y="60" width="180" height="30" as="geometry" />
        </mxCell>
        <mxCell id="P7zBk37iXGUM-F-DUnUP-22" value="" style="shape=partialRectangle;html=1;whiteSpace=wrap;connectable=0;fillColor=none;top=0;left=0;bottom=0;right=0;overflow=hidden;" vertex="1" parent="P7zBk37iXGUM-F-DUnUP-21">
          <mxGeometry width="40" height="30" as="geometry" />
        </mxCell>
        <mxCell id="P7zBk37iXGUM-F-DUnUP-23" value="Tên khoa" style="shape=partialRectangle;html=1;whiteSpace=wrap;connectable=0;fillColor=none;top=0;left=0;bottom=0;right=0;align=left;spacingLeft=6;overflow=hidden;" vertex="1" parent="P7zBk37iXGUM-F-DUnUP-21">
          <mxGeometry x="40" width="140" height="30" as="geometry" />
        </mxCell>
        <mxCell id="P7zBk37iXGUM-F-DUnUP-24" value="" style="shape=partialRectangle;html=1;whiteSpace=wrap;collapsible=0;dropTarget=0;pointerEvents=0;fillColor=none;top=0;left=0;bottom=0;right=0;points=[[0,0.5],[1,0.5]];portConstraint=eastwest;" vertex="1" parent="P7zBk37iXGUM-F-DUnUP-17">
          <mxGeometry y="90" width="180" height="30" as="geometry" />
        </mxCell>
        <mxCell id="P7zBk37iXGUM-F-DUnUP-25" value="" style="shape=partialRectangle;html=1;whiteSpace=wrap;connectable=0;fillColor=none;top=0;left=0;bottom=0;right=0;overflow=hidden;" vertex="1" parent="P7zBk37iXGUM-F-DUnUP-24">
          <mxGeometry width="40" height="30" as="geometry" />
        </mxCell>
        <mxCell id="P7zBk37iXGUM-F-DUnUP-26" value="" style="shape=partialRectangle;html=1;whiteSpace=wrap;connectable=0;fillColor=none;top=0;left=0;bottom=0;right=0;align=left;spacingLeft=6;overflow=hidden;" vertex="1" parent="P7zBk37iXGUM-F-DUnUP-24">
          <mxGeometry x="40" width="140" height="30" as="geometry" />
        </mxCell>
        <mxCell id="P7zBk37iXGUM-F-DUnUP-27" value="Bệnh Nhân" style="shape=table;startSize=30;container=1;collapsible=0;childLayout=tableLayout;fixedRows=1;rowLines=0;fontStyle=1;align=center;" vertex="1" parent="1">
          <mxGeometry x="50" y="40" width="180" height="210" as="geometry" />
        </mxCell>
        <mxCell id="P7zBk37iXGUM-F-DUnUP-28" value="" style="shape=partialRectangle;html=1;whiteSpace=wrap;collapsible=0;dropTarget=0;pointerEvents=0;fillColor=none;top=0;left=0;bottom=1;right=0;points=[[0,0.5],[1,0.5]];portConstraint=eastwest;" vertex="1" parent="P7zBk37iXGUM-F-DUnUP-27">
          <mxGeometry y="30" width="180" height="30" as="geometry" />
        </mxCell>
        <mxCell id="P7zBk37iXGUM-F-DUnUP-29" value="&lt;b&gt;PK&lt;/b&gt;" style="shape=partialRectangle;html=1;whiteSpace=wrap;connectable=0;fillColor=none;top=0;left=0;bottom=0;right=0;overflow=hidden;" vertex="1" parent="P7zBk37iXGUM-F-DUnUP-28">
          <mxGeometry width="40" height="30" as="geometry" />
        </mxCell>
        <mxCell id="P7zBk37iXGUM-F-DUnUP-30" value="&lt;b&gt;Mã_BN&lt;/b&gt;" style="shape=partialRectangle;html=1;whiteSpace=wrap;connectable=0;fillColor=none;top=0;left=0;bottom=0;right=0;align=left;spacingLeft=6;overflow=hidden;" vertex="1" parent="P7zBk37iXGUM-F-DUnUP-28">
          <mxGeometry x="40" width="140" height="30" as="geometry" />
        </mxCell>
        <mxCell id="P7zBk37iXGUM-F-DUnUP-31" value="" style="shape=partialRectangle;html=1;whiteSpace=wrap;collapsible=0;dropTarget=0;pointerEvents=0;fillColor=none;top=0;left=0;bottom=0;right=0;points=[[0,0.5],[1,0.5]];portConstraint=eastwest;" vertex="1" parent="P7zBk37iXGUM-F-DUnUP-27">
          <mxGeometry y="60" width="180" height="30" as="geometry" />
        </mxCell>
        <mxCell id="P7zBk37iXGUM-F-DUnUP-32" value="" style="shape=partialRectangle;html=1;whiteSpace=wrap;connectable=0;fillColor=none;top=0;left=0;bottom=0;right=0;overflow=hidden;" vertex="1" parent="P7zBk37iXGUM-F-DUnUP-31">
          <mxGeometry width="40" height="30" as="geometry" />
        </mxCell>
        <mxCell id="P7zBk37iXGUM-F-DUnUP-33" value="Họ tên" style="shape=partialRectangle;html=1;whiteSpace=wrap;connectable=0;fillColor=none;top=0;left=0;bottom=0;right=0;align=left;spacingLeft=6;overflow=hidden;" vertex="1" parent="P7zBk37iXGUM-F-DUnUP-31">
          <mxGeometry x="40" width="140" height="30" as="geometry" />
        </mxCell>
        <mxCell id="P7zBk37iXGUM-F-DUnUP-34" value="" style="shape=partialRectangle;html=1;whiteSpace=wrap;collapsible=0;dropTarget=0;pointerEvents=0;fillColor=none;top=0;left=0;bottom=0;right=0;points=[[0,0.5],[1,0.5]];portConstraint=eastwest;" vertex="1" parent="P7zBk37iXGUM-F-DUnUP-27">
          <mxGeometry y="90" width="180" height="30" as="geometry" />
        </mxCell>
        <mxCell id="P7zBk37iXGUM-F-DUnUP-35" value="" style="shape=partialRectangle;html=1;whiteSpace=wrap;connectable=0;fillColor=none;top=0;left=0;bottom=0;right=0;overflow=hidden;" vertex="1" parent="P7zBk37iXGUM-F-DUnUP-34">
          <mxGeometry width="40" height="30" as="geometry" />
        </mxCell>
        <mxCell id="P7zBk37iXGUM-F-DUnUP-36" value="Địa chỉ" style="shape=partialRectangle;html=1;whiteSpace=wrap;connectable=0;fillColor=none;top=0;left=0;bottom=0;right=0;align=left;spacingLeft=6;overflow=hidden;" vertex="1" parent="P7zBk37iXGUM-F-DUnUP-34">
          <mxGeometry x="40" width="140" height="30" as="geometry" />
        </mxCell>
        <mxCell id="P7zBk37iXGUM-F-DUnUP-37" value="" style="shape=partialRectangle;html=1;whiteSpace=wrap;collapsible=0;dropTarget=0;pointerEvents=0;fillColor=none;top=0;left=0;bottom=0;right=0;points=[[0,0.5],[1,0.5]];portConstraint=eastwest;" vertex="1" parent="P7zBk37iXGUM-F-DUnUP-27">
          <mxGeometry y="120" width="180" height="30" as="geometry" />
        </mxCell>
        <mxCell id="P7zBk37iXGUM-F-DUnUP-38" value="" style="shape=partialRectangle;html=1;whiteSpace=wrap;connectable=0;fillColor=none;top=0;left=0;bottom=0;right=0;overflow=hidden;" vertex="1" parent="P7zBk37iXGUM-F-DUnUP-37">
          <mxGeometry width="40" height="30" as="geometry" />
        </mxCell>
        <mxCell id="P7zBk37iXGUM-F-DUnUP-39" value="CMT" style="shape=partialRectangle;html=1;whiteSpace=wrap;connectable=0;fillColor=none;top=0;left=0;bottom=0;right=0;align=left;spacingLeft=6;overflow=hidden;" vertex="1" parent="P7zBk37iXGUM-F-DUnUP-37">
          <mxGeometry x="40" width="140" height="30" as="geometry" />
        </mxCell>
        <mxCell id="P7zBk37iXGUM-F-DUnUP-40" value="" style="shape=partialRectangle;html=1;whiteSpace=wrap;collapsible=0;dropTarget=0;pointerEvents=0;fillColor=none;top=0;left=0;bottom=0;right=0;points=[[0,0.5],[1,0.5]];portConstraint=eastwest;" vertex="1" parent="P7zBk37iXGUM-F-DUnUP-27">
          <mxGeometry y="150" width="180" height="30" as="geometry" />
        </mxCell>
        <mxCell id="P7zBk37iXGUM-F-DUnUP-41" value="FK" style="shape=partialRectangle;html=1;whiteSpace=wrap;connectable=0;fillColor=none;top=0;left=0;bottom=0;right=0;overflow=hidden;" vertex="1" parent="P7zBk37iXGUM-F-DUnUP-40">
          <mxGeometry width="40" height="30" as="geometry" />
        </mxCell>
        <mxCell id="P7zBk37iXGUM-F-DUnUP-42" value="Mã_BS" style="shape=partialRectangle;html=1;whiteSpace=wrap;connectable=0;fillColor=none;top=0;left=0;bottom=0;right=0;align=left;spacingLeft=6;overflow=hidden;" vertex="1" parent="P7zBk37iXGUM-F-DUnUP-40">
          <mxGeometry x="40" width="140" height="30" as="geometry" />
        </mxCell>
        <mxCell id="P7zBk37iXGUM-F-DUnUP-43" value="Chữa trị" style="shape=table;startSize=30;container=1;collapsible=0;childLayout=tableLayout;fixedRows=1;rowLines=0;fontStyle=1;align=center;" vertex="1" parent="1">
          <mxGeometry x="320" y="310" width="180" height="180" as="geometry" />
        </mxCell>
        <mxCell id="P7zBk37iXGUM-F-DUnUP-44" value="" style="shape=partialRectangle;html=1;whiteSpace=wrap;collapsible=0;dropTarget=0;pointerEvents=0;fillColor=none;top=0;left=0;bottom=1;right=0;points=[[0,0.5],[1,0.5]];portConstraint=eastwest;" vertex="1" parent="P7zBk37iXGUM-F-DUnUP-43">
          <mxGeometry y="30" width="180" height="30" as="geometry" />
        </mxCell>
        <mxCell id="P7zBk37iXGUM-F-DUnUP-45" value="PK" style="shape=partialRectangle;html=1;whiteSpace=wrap;connectable=0;fillColor=none;top=0;left=0;bottom=0;right=0;overflow=hidden;" vertex="1" parent="P7zBk37iXGUM-F-DUnUP-44">
          <mxGeometry width="40" height="30" as="geometry" />
        </mxCell>
        <mxCell id="P7zBk37iXGUM-F-DUnUP-46" value="Mã_BS" style="shape=partialRectangle;html=1;whiteSpace=wrap;connectable=0;fillColor=none;top=0;left=0;bottom=0;right=0;align=left;spacingLeft=6;overflow=hidden;" vertex="1" parent="P7zBk37iXGUM-F-DUnUP-44">
          <mxGeometry x="40" width="140" height="30" as="geometry" />
        </mxCell>
        <mxCell id="P7zBk37iXGUM-F-DUnUP-47" value="" style="shape=partialRectangle;html=1;whiteSpace=wrap;collapsible=0;dropTarget=0;pointerEvents=0;fillColor=none;top=0;left=0;bottom=0;right=0;points=[[0,0.5],[1,0.5]];portConstraint=eastwest;" vertex="1" parent="P7zBk37iXGUM-F-DUnUP-43">
          <mxGeometry y="60" width="180" height="30" as="geometry" />
        </mxCell>
        <mxCell id="P7zBk37iXGUM-F-DUnUP-48" value="PK" style="shape=partialRectangle;html=1;whiteSpace=wrap;connectable=0;fillColor=none;top=0;left=0;bottom=0;right=0;overflow=hidden;" vertex="1" parent="P7zBk37iXGUM-F-DUnUP-47">
          <mxGeometry width="40" height="30" as="geometry" />
        </mxCell>
        <mxCell id="P7zBk37iXGUM-F-DUnUP-49" value="Mã_BN" style="shape=partialRectangle;html=1;whiteSpace=wrap;connectable=0;fillColor=none;top=0;left=0;bottom=0;right=0;align=left;spacingLeft=6;overflow=hidden;" vertex="1" parent="P7zBk37iXGUM-F-DUnUP-47">
          <mxGeometry x="40" width="140" height="30" as="geometry" />
        </mxCell>
        <mxCell id="P7zBk37iXGUM-F-DUnUP-50" value="" style="shape=partialRectangle;html=1;whiteSpace=wrap;collapsible=0;dropTarget=0;pointerEvents=0;fillColor=none;top=0;left=0;bottom=0;right=0;points=[[0,0.5],[1,0.5]];portConstraint=eastwest;" vertex="1" parent="P7zBk37iXGUM-F-DUnUP-43">
          <mxGeometry y="90" width="180" height="30" as="geometry" />
        </mxCell>
        <mxCell id="P7zBk37iXGUM-F-DUnUP-51" value="" style="shape=partialRectangle;html=1;whiteSpace=wrap;connectable=0;fillColor=none;top=0;left=0;bottom=0;right=0;overflow=hidden;" vertex="1" parent="P7zBk37iXGUM-F-DUnUP-50">
          <mxGeometry width="40" height="30" as="geometry" />
        </mxCell>
        <mxCell id="P7zBk37iXGUM-F-DUnUP-52" value="Phương pháp điều trị" style="shape=partialRectangle;html=1;whiteSpace=wrap;connectable=0;fillColor=none;top=0;left=0;bottom=0;right=0;align=left;spacingLeft=6;overflow=hidden;" vertex="1" parent="P7zBk37iXGUM-F-DUnUP-50">
          <mxGeometry x="40" width="140" height="30" as="geometry" />
        </mxCell>
        <mxCell id="P7zBk37iXGUM-F-DUnUP-54" value="" style="endArrow=none;html=1;entryX=0.989;entryY=-0.067;entryDx=0;entryDy=0;entryPerimeter=0;exitX=0.006;exitY=-0.033;exitDx=0;exitDy=0;exitPerimeter=0;" edge="1" parent="P7zBk37iXGUM-F-DUnUP-43" source="P7zBk37iXGUM-F-DUnUP-50" target="P7zBk37iXGUM-F-DUnUP-50">
          <mxGeometry width="50" height="50" relative="1" as="geometry">
            <mxPoint x="70" y="100" as="sourcePoint" />
            <mxPoint x="120" y="50" as="targetPoint" />
          </mxGeometry>
        </mxCell>
        <mxCell id="P7zBk37iXGUM-F-DUnUP-66" value="" style="shape=partialRectangle;html=1;whiteSpace=wrap;collapsible=0;dropTarget=0;pointerEvents=0;fillColor=none;top=0;left=0;bottom=0;right=0;points=[[0,0.5],[1,0.5]];portConstraint=eastwest;" vertex="1" parent="P7zBk37iXGUM-F-DUnUP-43">
          <mxGeometry y="120" width="180" height="30" as="geometry" />
        </mxCell>
        <mxCell id="P7zBk37iXGUM-F-DUnUP-67" value="" style="shape=partialRectangle;html=1;whiteSpace=wrap;connectable=0;fillColor=none;top=0;left=0;bottom=0;right=0;overflow=hidden;" vertex="1" parent="P7zBk37iXGUM-F-DUnUP-66">
          <mxGeometry width="40" height="30" as="geometry" />
        </mxCell>
        <mxCell id="P7zBk37iXGUM-F-DUnUP-68" value="Ngày giờ" style="shape=partialRectangle;html=1;whiteSpace=wrap;connectable=0;fillColor=none;top=0;left=0;bottom=0;right=0;align=left;spacingLeft=6;overflow=hidden;" vertex="1" parent="P7zBk37iXGUM-F-DUnUP-66">
          <mxGeometry x="40" width="140" height="30" as="geometry" />
        </mxCell>
      </root>
    </mxGraphModel>
  </diagram>
</mxfile>
